<?xml version="1.0" standalone="no"?>
<!DOCTYPE svg PUBLIC "-//W3C//DTD SVG 20010904//EN"
 "http://www.w3.org/TR/2001/REC-SVG-20010904/DTD/svg10.dtd">
<svg version="1.0" xmlns="http://www.w3.org/2000/svg"
 width="700.000000pt" height="700.000000pt" viewBox="0 0 700.000000 700.000000"
 preserveAspectRatio="xMidYMid meet">
<metadata>
Created by potrace 1.14, written by Peter Selinger 2001-2017
</metadata>
<g transform="translate(0.000000,700.000000) scale(0.100000,-0.100000)"
fill="#000000" stroke="none">
<path d="M1697 6124 c-1 -1 -31 -5 -67 -8 -79 -8 -225 -56 -298 -97 -405 -228
-567 -714 -376 -1128 90 -195 257 -359 449 -442 l54 -23 0 -1236 c0 -679 3
-1253 6 -1275 30 -214 98 -392 211 -551 58 -82 188 -212 270 -272 66 -47 233
-132 309 -157 228 -75 504 -77 726 -4 230 75 457 240 592 430 109 154 197 382
212 550 2 24 4 733 5 1574 0 1026 4 1545 11 1575 6 25 12 52 14 60 2 8 9 29
16 45 7 17 13 33 13 37 3 23 95 144 143 189 64 58 191 124 270 139 71 13 230
6 288 -14 131 -44 230 -119 310 -231 25 -34 45 -67 45 -72 0 -6 7 -24 16 -41
41 -82 41 -106 42 -1378 l0 -1220 -62 -27 c-93 -41 -183 -103 -262 -181 -197
-197 -282 -446 -251 -731 31 -276 227 -549 481 -669 190 -90 352 -110 575 -70
55 9 171 53 231 87 87 49 150 98 221 175 208 224 282 531 199 831 -28 99 -96
234 -145 287 -5 6 -29 34 -53 62 -58 69 -170 151 -269 198 l-81 39 -1 1225 c0
674 -3 1252 -6 1285 -28 260 -146 505 -335 695 -421 425 -1088 460 -1561 82
-151 -121 -272 -286 -350 -477 -7 -16 -13 -32 -14 -35 -35 -114 -37 -121 -50
-200 -4 -25 -9 -54 -11 -65 -2 -11 -4 -714 -4 -1561 0 -1489 -1 -1544 -20
-1617 -29 -115 -73 -192 -159 -277 -119 -117 -244 -168 -411 -168 -158 0 -285
53 -401 168 -86 86 -141 183 -163 290 -11 52 -13 304 -14 1285 l0 1220 42 18
c114 47 281 176 361 277 63 81 144 253 159 340 20 110 24 197 13 295 -8 77
-10 85 -42 180 -101 305 -388 543 -700 581 -52 6 -173 12 -178 8z"/>
</g>
</svg>
